<svg id="svg" version="1.1" xmlns="http://www.w3.org/2000/svg" xmlns:xlink="http://www.w3.org/1999/xlink" width="400" height="400" viewBox="0, 0, 400,400"><g id="svgg"><path id="path0" d="M186.739 87.500 C 185.199 89.176,184.148 90.872,183.826 92.198 C 183.398 93.964,182.873 94.400,181.175 94.400 C 180.335 94.400,179.548 94.560,179.427 94.756 C 179.306 94.951,178.576 95.221,177.804 95.356 C 177.032 95.490,175.770 95.710,175.000 95.844 C 173.562 96.094,172.994 95.168,173.979 94.180 C 174.187 93.971,174.412 92.810,174.479 91.600 L 174.600 89.400 173.260 89.463 C 170.857 89.577,168.017 93.387,167.772 96.824 C 167.707 97.734,167.597 98.528,167.527 98.588 C 167.457 98.648,166.230 99.249,164.800 99.924 C 163.370 100.599,160.900 101.873,159.311 102.756 C 156.009 104.590,155.857 104.520,156.431 101.418 C 156.902 98.868,156.542 98.000,155.013 98.000 C 153.111 98.000,151.776 101.152,152.111 104.853 L 152.323 107.190 150.262 108.893 C 149.128 109.830,147.660 111.091,147.000 111.696 C 145.176 113.368,144.648 113.169,144.896 110.900 C 145.165 108.447,144.971 108.000,143.636 108.000 C 141.396 108.000,140.605 109.551,140.600 113.957 L 140.596 117.854 138.383 120.427 C 137.165 121.842,135.391 124.033,134.439 125.296 C 132.564 127.785,132.000 127.900,132.000 125.795 C 132.000 122.912,129.982 121.046,128.484 122.545 C 127.451 123.578,127.594 128.246,128.718 130.150 C 129.891 132.140,129.878 132.227,127.791 136.284 C 126.006 139.751,125.134 140.567,124.883 139.000 C 124.639 137.476,123.924 136.056,123.274 135.807 C 121.377 135.079,120.976 139.931,122.642 143.452 C 123.758 145.811,123.770 145.517,122.343 150.400 C 122.117 151.170,121.779 152.610,121.591 153.600 C 120.700 158.290,120.585 158.389,119.280 155.604 C 118.333 153.585,117.398 152.956,116.000 153.400 C 114.203 153.970,115.705 158.600,118.449 160.949 L 120.000 162.277 120.000 166.872 C 120.000 172.235,119.959 172.318,118.053 170.821 C 116.188 169.358,115.047 169.020,114.439 169.753 C 113.347 171.068,115.898 174.919,118.862 176.432 C 119.730 176.874,120.501 177.453,120.576 177.718 C 120.651 177.983,120.907 179.190,121.144 180.400 C 121.382 181.610,121.782 183.555,122.033 184.722 C 122.513 186.950,122.359 187.591,121.510 186.899 C 120.272 185.889,118.044 185.636,117.103 186.398 L 116.200 187.130 117.408 188.850 C 118.073 189.796,119.288 190.892,120.108 191.285 C 120.929 191.678,122.258 192.315,123.063 192.700 C 124.350 193.316,124.666 193.783,125.707 196.600 C 127.664 201.897,127.758 201.544,124.343 201.682 C 119.218 201.888,121.730 205.886,127.449 206.625 C 130.139 206.972,130.009 206.859,132.361 210.932 C 134.912 215.350,134.953 215.143,131.500 215.282 C 125.294 215.534,129.218 219.381,136.158 219.848 C 138.374 219.998,138.846 220.343,141.644 223.857 C 144.023 226.844,144.059 227.200,141.986 227.200 C 141.098 227.200,139.928 227.491,139.386 227.846 C 136.253 229.898,141.661 232.466,147.000 231.462 C 148.551 231.170,148.700 231.244,151.865 233.880 C 155.066 236.547,155.575 237.600,153.664 237.600 C 152.482 237.600,149.653 238.884,149.404 239.534 C 148.695 241.381,154.230 241.719,157.538 240.031 L 159.148 239.210 161.914 240.805 C 163.435 241.682,164.865 242.400,165.091 242.400 C 165.864 242.400,166.682 243.703,166.043 243.917 C 165.074 244.243,162.400 246.868,162.400 247.493 C 162.400 248.694,167.286 247.976,169.438 246.458 L 171.289 245.154 173.545 245.813 C 178.042 247.128,177.950 247.023,176.032 248.666 C 172.117 252.017,175.351 254.383,179.508 251.209 C 181.945 249.349,188.894 248.621,188.194 250.300 C 186.950 253.280,186.954 253.232,187.944 254.035 C 189.715 255.469,191.557 254.581,193.426 251.391 C 194.519 249.527,196.054 248.951,199.083 249.268 L 200.345 249.400 199.368 251.518 C 198.314 253.804,198.528 255.200,199.933 255.200 C 200.963 255.200,203.490 252.438,204.118 250.625 C 204.743 248.818,205.953 248.233,209.700 247.924 C 212.235 247.715,212.413 247.917,211.402 249.854 C 210.150 252.256,211.498 254.178,213.699 253.129 C 215.054 252.483,216.800 249.694,216.800 248.176 C 216.800 247.828,217.028 247.315,217.307 247.036 C 217.796 246.546,218.348 246.370,221.800 245.600 C 222.680 245.404,223.924 245.117,224.565 244.962 C 225.599 244.713,225.696 244.768,225.424 245.441 C 223.775 249.525,223.664 250.800,224.957 250.800 C 226.493 250.800,229.600 246.659,229.600 244.611 C 229.600 243.496,230.108 243.048,232.303 242.231 C 233.236 241.884,234.748 241.321,235.661 240.981 C 238.060 240.087,238.359 240.326,237.864 242.741 C 237.313 245.431,237.920 246.908,239.503 246.726 C 241.197 246.531,242.462 243.744,242.325 240.510 C 242.222 238.085,242.815 236.864,244.121 236.813 C 244.298 236.806,245.105 236.350,245.914 235.800 C 247.910 234.444,248.000 234.492,248.000 236.920 C 248.000 239.367,248.459 240.000,250.234 240.000 C 252.199 240.000,252.800 238.737,252.800 234.610 C 252.800 231.600,252.902 231.109,253.657 230.496 C 254.128 230.113,255.097 229.305,255.810 228.700 C 257.443 227.314,257.444 227.314,258.009 229.027 C 259.431 233.337,262.400 231.134,262.400 225.769 L 262.400 222.383 264.437 219.791 C 266.765 216.829,267.200 216.641,267.200 218.600 C 267.200 219.809,267.330 220.000,268.154 220.000 C 269.989 220.000,271.083 216.846,270.441 213.407 C 270.068 211.409,270.240 210.887,273.158 205.200 C 273.327 204.870,273.714 203.750,274.017 202.710 C 274.660 200.508,275.461 199.982,276.003 201.408 C 276.265 202.096,276.684 202.400,277.372 202.400 C 279.179 202.400,279.286 198.001,277.554 194.918 C 276.886 193.729,276.771 193.057,276.986 191.613 C 277.135 190.616,277.383 188.810,277.538 187.600 C 277.885 184.880,278.325 184.027,278.961 184.839 C 282.448 189.293,283.679 183.448,280.228 178.822 C 279.663 178.065,279.200 177.130,279.200 176.746 C 279.200 176.362,279.020 175.936,278.800 175.800 C 278.003 175.307,278.297 167.471,279.100 167.806 C 281.743 168.909,281.997 168.963,282.445 168.515 C 283.380 167.580,282.445 165.294,280.083 162.743 C 276.200 158.549,275.437 152.449,278.998 154.072 C 279.881 154.474,280.150 154.428,280.816 153.762 C 281.814 152.764,280.264 150.647,277.271 148.920 C 275.103 147.669,274.843 147.323,273.956 144.517 L 273.297 142.434 275.349 142.517 C 279.881 142.700,277.221 138.230,272.313 137.415 C 271.008 137.199,268.400 133.546,268.400 131.935 C 268.400 131.852,269.750 131.853,271.400 131.936 L 274.400 132.087 274.400 131.049 C 274.400 129.499,271.091 127.589,267.400 127.009 C 264.755 126.593,264.539 126.457,262.755 124.085 C 261.811 122.828,260.771 121.530,260.444 121.200 C 259.918 120.668,260.100 120.577,262.064 120.400 C 268.524 119.816,266.163 116.208,259.309 116.190 L 255.619 116.180 253.429 114.390 C 251.370 112.707,250.560 111.200,251.714 111.200 C 251.996 111.200,252.546 110.661,252.935 110.003 C 254.300 107.692,252.483 106.626,247.772 106.971 C 244.097 107.241,243.975 107.222,242.306 106.111 C 241.368 105.487,240.105 104.726,239.500 104.420 C 238.074 103.700,238.101 103.575,240.000 102.048 C 241.759 100.635,241.878 100.335,241.020 99.477 C 239.726 98.183,234.554 98.305,231.700 99.696 C 231.071 100.003,230.529 100.011,229.900 99.721 C 227.907 98.804,226.920 98.414,225.200 97.861 C 223.510 97.318,222.453 96.000,223.709 96.000 C 224.678 96.000,225.669 94.550,225.530 93.335 C 225.282 91.168,221.921 91.667,216.800 94.631 C 216.250 94.949,215.440 95.102,215.000 94.970 C 213.492 94.519,210.599 93.991,208.400 93.766 C 205.514 93.471,205.299 93.171,206.769 91.496 C 210.466 87.286,204.274 87.427,199.532 91.661 C 198.319 92.744,198.067 92.800,194.428 92.805 C 192.323 92.808,190.171 92.926,189.646 93.066 C 188.742 93.308,188.706 93.250,188.977 91.961 C 190.110 86.557,189.226 84.793,186.739 87.500 M200.018 95.700 C 204.144 100.404,204.566 100.800,205.455 100.800 C 206.584 100.800,206.767 98.891,205.800 97.200 C 204.887 95.603,205.051 95.492,207.900 95.781 C 212.232 96.221,213.578 96.689,214.043 97.920 C 214.932 100.273,219.217 103.502,220.788 103.004 C 221.881 102.657,221.810 101.751,220.560 100.111 C 219.987 99.361,219.628 98.639,219.760 98.506 C 220.023 98.244,225.563 99.940,226.180 100.472 C 226.389 100.652,226.866 100.800,227.240 100.800 C 227.730 100.800,228.060 101.387,228.422 102.900 C 229.956 109.321,234.003 112.278,233.472 106.591 C 233.149 103.136,234.865 103.353,240.895 107.531 L 242.584 108.700 242.457 111.742 C 242.305 115.393,243.199 118.619,244.476 119.024 C 245.734 119.423,246.007 118.540,245.736 114.957 C 245.394 110.436,246.534 110.498,251.796 115.287 L 253.792 117.103 253.296 118.957 C 252.300 122.680,252.852 126.400,254.400 126.400 C 255.355 126.400,255.782 125.471,256.188 122.500 C 256.553 119.829,256.639 119.846,259.647 123.189 C 262.911 126.818,262.870 126.714,261.889 128.804 C 260.266 132.263,260.587 137.200,262.434 137.200 C 262.976 137.200,264.339 134.857,264.820 133.100 C 265.478 130.697,266.568 131.459,268.539 135.698 C 269.225 137.173,269.221 137.223,268.242 138.898 C 265.693 143.264,267.041 146.962,269.883 143.400 C 271.100 141.875,272.000 141.586,272.000 142.720 C 272.000 143.116,272.149 143.611,272.330 143.820 C 273.700 145.395,273.769 147.694,272.481 148.845 C 271.776 149.474,271.196 150.126,271.191 150.294 C 271.186 150.462,270.830 151.050,270.400 151.600 C 268.449 154.094,270.326 155.412,272.964 153.400 C 275.113 151.761,275.083 151.721,276.012 157.337 C 276.225 158.623,276.493 159.827,276.608 160.013 C 276.723 160.198,276.007 160.907,275.018 161.588 C 273.119 162.894,271.200 165.683,271.200 167.135 C 271.200 168.488,272.799 168.220,274.765 166.537 C 276.910 164.701,277.047 164.891,277.410 170.215 C 277.757 175.308,277.639 175.659,275.211 176.756 C 273.024 177.745,270.693 180.462,270.885 181.799 C 271.040 182.876,273.126 182.792,274.739 181.644 C 277.196 179.894,277.464 180.980,276.356 188.200 C 276.120 189.740,275.898 191.270,275.862 191.600 C 275.826 191.930,274.808 192.707,273.599 193.327 C 271.004 194.658,268.800 196.661,268.800 197.688 C 268.800 198.750,270.686 199.394,272.183 198.842 C 274.556 197.968,274.239 199.502,270.272 208.088 C 269.245 210.313,268.940 210.484,266.970 209.941 C 264.324 209.210,260.800 210.515,260.800 212.226 C 260.800 213.545,262.250 214.400,264.489 214.400 C 265.540 214.400,266.400 214.497,266.400 214.616 C 266.400 214.824,264.813 217.190,264.398 217.600 C 264.286 217.710,263.692 218.475,263.077 219.300 C 262.040 220.692,260.915 221.181,260.259 220.526 C 258.552 218.819,253.600 219.064,253.600 220.856 C 253.600 221.649,256.220 223.200,257.560 223.200 C 259.013 223.200,258.826 223.921,256.904 225.736 C 252.889 229.528,252.723 229.599,250.667 228.386 C 248.560 227.143,245.634 226.920,244.412 227.910 C 243.020 229.037,244.094 230.159,247.700 231.345 C 248.784 231.701,248.546 232.197,246.700 233.426 C 242.374 236.307,241.098 236.620,239.400 235.222 C 238.605 234.568,237.245 233.879,235.896 233.447 C 232.164 232.253,231.287 236.712,234.990 238.051 C 236.499 238.596,236.861 239.200,235.680 239.200 C 235.284 239.200,234.789 239.349,234.580 239.530 C 233.194 240.735,230.787 240.937,229.692 239.940 C 227.633 238.065,223.778 236.396,222.843 236.974 C 221.457 237.830,222.823 240.909,224.951 241.726 C 225.996 242.127,225.524 242.978,224.169 243.135 C 223.526 243.210,222.820 243.410,222.600 243.581 C 221.183 244.679,218.964 244.387,217.580 242.920 C 215.940 241.180,212.932 239.200,211.929 239.200 C 209.996 239.200,210.806 242.293,213.203 244.065 C 213.861 244.552,214.400 245.059,214.400 245.193 C 214.400 245.493,210.555 246.303,207.577 246.629 L 205.355 246.873 204.293 245.269 C 202.984 243.291,200.616 241.431,199.804 241.743 C 198.902 242.089,199.047 244.498,200.046 245.767 C 201.106 247.115,200.992 247.217,198.042 247.565 C 195.569 247.857,194.400 247.559,194.400 246.636 C 194.400 245.817,191.211 242.400,190.446 242.400 C 188.810 242.400,188.141 245.409,189.454 246.860 C 190.352 247.852,189.678 248.073,186.218 247.920 L 183.516 247.800 182.938 246.000 C 181.393 241.197,179.613 239.101,177.784 239.935 C 176.744 240.408,176.315 243.253,177.200 243.800 C 178.294 244.476,177.576 245.232,176.102 244.955 C 173.716 244.508,172.366 243.541,171.688 241.796 C 170.547 238.857,168.386 235.945,167.447 236.079 C 166.443 236.222,166.056 238.611,166.809 240.017 C 167.563 241.426,166.986 241.366,163.922 239.721 C 161.660 238.506,160.973 237.931,160.881 237.176 C 160.508 234.118,157.326 228.400,155.998 228.400 C 155.330 228.400,155.220 228.753,155.118 231.244 L 155.000 234.087 152.000 231.682 L 149.000 229.277 148.977 225.656 C 148.964 223.665,148.758 221.622,148.517 221.118 C 148.277 220.613,147.861 219.615,147.592 218.900 C 146.482 215.949,144.800 217.701,144.800 221.807 C 144.800 224.953,144.662 224.954,142.012 221.817 C 139.843 219.249,139.725 218.760,140.408 215.160 C 141.529 209.246,138.399 205.688,136.564 210.791 C 135.624 213.407,135.578 213.388,133.215 209.388 C 130.925 205.509,130.986 205.751,131.844 204.032 C 133.388 200.937,133.945 197.194,133.127 195.401 C 132.338 193.668,131.190 194.247,129.809 197.074 C 128.240 200.285,128.205 200.271,126.755 195.800 C 126.470 194.920,126.093 194.029,125.918 193.820 C 125.409 193.212,125.549 191.659,126.231 190.339 C 129.310 184.386,127.839 177.433,124.553 182.400 C 123.264 184.347,123.317 184.344,122.855 182.500 C 121.922 178.772,121.951 177.779,123.031 176.557 C 124.659 174.714,126.400 172.104,126.400 171.508 C 126.400 171.207,126.593 170.767,126.829 170.531 C 127.065 170.295,127.200 169.494,127.129 168.751 C 126.944 166.816,125.094 166.632,123.418 168.382 C 121.735 170.138,121.600 169.973,121.600 166.161 C 121.600 162.742,121.609 162.713,123.138 160.975 C 127.254 156.300,128.519 149.987,124.787 152.746 C 123.281 153.860,123.198 153.836,123.210 152.300 C 123.237 148.942,124.969 145.470,127.151 144.400 C 129.604 143.197,132.897 140.193,132.724 139.316 C 132.480 138.079,131.352 137.779,129.772 138.533 C 127.712 139.515,127.604 139.102,129.181 136.270 C 129.938 134.911,130.746 133.396,130.978 132.903 C 131.328 132.159,131.725 132.006,133.304 132.003 C 136.774 131.997,140.904 129.290,140.006 127.611 C 139.624 126.897,138.948 126.861,136.061 127.401 C 135.016 127.596,134.792 127.536,135.043 127.126 C 135.799 125.891,138.178 122.938,139.718 121.321 C 140.633 120.362,141.530 119.312,141.711 118.988 C 142.108 118.278,143.180 118.242,145.276 118.870 C 147.916 119.661,152.000 118.368,152.000 116.741 C 152.000 115.548,150.214 115.071,147.933 115.656 C 144.356 116.573,145.270 115.048,150.868 110.762 L 153.936 108.413 155.618 109.006 C 159.007 110.202,163.703 109.327,163.927 107.459 C 164.068 106.276,162.921 105.600,160.774 105.600 C 158.394 105.600,159.770 104.319,164.600 102.038 C 166.140 101.311,167.713 100.555,168.095 100.358 C 168.954 99.915,170.400 99.889,170.400 100.316 C 170.400 100.610,172.520 101.758,176.069 103.387 C 177.947 104.250,179.200 103.714,179.200 102.048 C 179.200 100.755,178.188 99.688,176.543 99.248 C 174.879 98.803,174.841 97.745,176.480 97.475 C 177.206 97.356,178.610 97.052,179.600 96.800 C 183.555 95.794,183.739 95.814,185.969 97.503 C 189.945 100.512,192.457 101.471,192.956 100.171 C 193.281 99.325,192.713 98.357,191.015 96.867 C 189.168 95.245,189.158 95.259,192.300 95.097 C 199.136 94.742,199.181 94.746,200.018 95.700 M215.123 113.810 C 215.008 113.926,211.243 114.204,206.757 114.428 C 188.404 115.345,179.929 115.959,179.455 116.406 C 179.265 116.584,179.534 117.486,180.053 118.409 L 180.997 120.088 182.998 119.820 C 191.364 118.699,190.827 118.749,206.400 117.613 C 209.590 117.381,212.415 117.112,212.679 117.016 C 212.942 116.920,214.808 116.808,216.826 116.767 C 220.500 116.693,223.748 115.210,222.975 113.960 C 222.742 113.583,215.488 113.445,215.123 113.810 M213.200 120.428 C 211.770 120.603,208.620 120.945,206.200 121.188 C 187.926 123.021,183.363 123.679,183.244 124.500 C 182.806 127.500,183.381 127.847,187.467 127.050 C 192.068 126.153,194.645 125.740,198.800 125.233 C 200.670 125.004,203.010 124.713,204.000 124.584 C 204.990 124.456,207.240 124.192,209.000 123.998 C 217.887 123.016,217.192 123.176,217.819 121.963 C 218.918 119.838,218.672 119.756,213.200 120.428 M213.200 126.835 C 212.210 127.013,209.870 127.354,208.000 127.592 C 201.893 128.369,198.628 128.846,197.000 129.199 C 196.120 129.390,194.230 129.763,192.800 130.027 C 190.362 130.478,187.775 131.101,185.013 131.905 C 184.051 132.185,183.764 132.547,183.500 133.814 C 182.985 136.296,183.120 136.396,185.800 135.512 C 192.632 133.260,200.882 131.582,214.079 129.760 C 215.968 129.499,216.991 128.080,216.206 126.810 C 215.929 126.361,215.823 126.362,213.200 126.835 M166.769 129.653 C 166.448 129.954,165.559 130.544,164.793 130.965 C 159.533 133.856,157.600 136.090,157.600 139.278 C 157.600 142.641,157.514 142.648,161.400 138.974 C 163.160 137.310,165.320 135.593,166.200 135.157 C 167.080 134.722,168.520 133.923,169.400 133.383 C 171.166 132.297,173.503 131.200,174.049 131.200 C 174.242 131.200,174.400 131.049,174.400 130.864 C 174.400 129.751,167.783 128.701,166.769 129.653 M232.000 130.423 C 230.790 130.592,228.450 130.912,226.800 131.136 C 223.133 131.634,222.597 131.824,220.700 133.300 C 218.000 135.401,218.368 135.493,225.200 134.429 C 226.630 134.207,228.970 133.847,230.400 133.630 C 231.830 133.413,234.119 133.062,235.486 132.850 C 239.164 132.280,239.598 131.844,237.638 130.686 C 236.416 129.964,235.583 129.925,232.000 130.423 M213.000 133.279 C 209.978 133.835,207.281 134.315,204.400 134.808 C 192.785 136.797,181.898 140.575,179.406 143.483 C 178.691 144.317,176.372 146.426,174.253 148.168 C 172.134 149.911,170.400 151.486,170.400 151.668 C 170.400 152.214,169.512 152.044,168.748 151.353 C 168.081 150.749,167.925 150.812,166.417 152.291 C 164.544 154.126,164.402 155.087,165.809 156.409 L 166.818 157.357 169.109 155.145 C 173.805 150.612,174.623 149.976,176.333 149.535 C 177.320 149.281,177.868 148.966,177.606 148.804 C 176.841 148.331,185.740 143.200,187.323 143.200 C 187.669 143.200,188.051 143.041,188.170 142.848 C 188.290 142.654,188.796 142.403,189.294 142.289 C 189.792 142.175,191.280 141.685,192.600 141.199 C 195.129 140.268,199.909 138.912,202.600 138.362 C 208.120 137.234,211.883 136.561,215.100 136.126 C 216.035 135.999,216.800 135.766,216.800 135.608 C 216.800 134.747,215.856 132.808,215.461 132.855 C 215.207 132.885,214.100 133.076,213.000 133.279 M176.900 134.794 C 174.003 136.134,173.938 136.294,175.799 137.500 C 177.400 138.537,177.699 138.567,179.600 137.886 C 182.680 136.782,182.768 136.626,181.222 135.026 C 179.591 133.339,179.996 133.361,176.900 134.794 M238.000 135.488 C 236.602 135.739,236.315 136.124,236.621 137.342 C 237.057 139.078,242.400 138.660,242.400 136.890 C 242.400 135.370,241.053 134.941,238.000 135.488 M218.200 138.631 C 216.440 138.939,214.280 139.358,213.400 139.563 C 212.520 139.767,210.720 140.156,209.400 140.427 C 206.636 140.994,203.772 141.725,198.600 143.184 C 197.392 143.524,192.087 145.379,190.600 145.981 C 190.160 146.159,188.270 147.047,186.400 147.955 C 184.530 148.864,182.578 149.605,182.063 149.603 C 181.507 149.601,181.047 149.885,180.934 150.300 C 180.829 150.685,179.631 151.754,178.271 152.676 C 170.282 158.096,161.950 168.956,161.437 174.620 C 161.198 177.258,161.544 179.217,162.101 178.373 C 162.164 178.278,162.824 177.030,163.568 175.600 C 169.082 165.003,181.993 152.000,187.001 152.000 C 187.564 152.000,188.124 151.742,188.245 151.426 C 188.777 150.041,201.248 145.286,208.200 143.818 C 208.860 143.678,210.030 143.410,210.800 143.222 C 213.793 142.492,216.683 141.894,218.558 141.617 C 220.112 141.388,220.749 141.047,221.647 139.964 C 223.490 137.742,223.427 137.718,218.200 138.631 M238.800 141.489 C 236.720 141.727,234.741 144.831,236.700 144.783 C 239.889 144.703,242.201 143.759,242.325 142.486 C 242.462 141.084,242.422 141.073,238.800 141.489 M161.672 145.326 C 160.753 146.263,160.001 147.383,160.002 147.815 C 160.004 148.593,161.803 151.191,162.064 150.793 C 162.139 150.678,162.968 149.768,163.908 148.770 C 165.600 146.970,165.610 146.943,164.999 145.719 C 163.892 143.500,163.509 143.454,161.672 145.326 M219.800 144.587 C 219.580 144.654,218.320 144.937,217.000 145.215 C 215.680 145.492,213.610 145.975,212.400 146.288 C 211.190 146.601,209.120 147.123,207.800 147.448 C 206.480 147.774,205.087 148.211,204.705 148.420 C 204.323 148.629,203.762 148.800,203.459 148.800 C 202.983 148.800,201.757 149.234,197.800 150.803 C 197.360 150.978,196.100 151.531,195.000 152.032 C 192.813 153.029,189.959 153.276,189.697 152.491 C 189.607 152.221,189.233 152.001,188.867 152.002 C 188.391 152.003,188.544 152.280,189.400 152.966 C 190.060 153.495,190.510 153.993,190.400 154.073 C 190.290 154.152,189.390 154.645,188.400 155.167 C 178.585 160.349,170.314 169.622,164.110 182.401 C 162.546 185.622,162.482 185.892,162.912 187.501 C 163.584 190.019,164.022 189.662,166.588 184.500 C 168.660 180.333,173.191 172.913,174.518 171.512 C 174.785 171.231,175.780 170.060,176.729 168.911 C 179.595 165.444,186.082 160.375,191.503 157.367 L 193.606 156.200 194.861 157.540 C 195.869 158.617,196.006 158.953,195.558 159.250 C 195.251 159.452,193.584 160.469,191.853 161.509 C 182.055 167.396,175.029 175.469,168.759 188.044 C 166.061 193.455,165.818 194.264,166.496 195.568 C 167.419 197.343,167.891 196.881,170.388 191.760 C 176.650 178.918,185.587 168.357,193.600 164.331 C 194.150 164.055,195.078 163.507,195.662 163.114 C 197.147 162.115,197.405 162.201,197.916 163.866 C 198.478 165.699,198.540 165.613,195.081 167.845 C 185.513 174.019,179.193 181.571,173.023 194.200 C 169.808 200.780,169.794 200.830,170.825 202.141 C 171.850 203.444,172.171 203.275,173.231 200.876 C 179.245 187.262,186.964 177.241,196.193 171.066 C 198.325 169.639,198.404 169.676,198.375 172.100 L 198.349 174.200 195.093 176.600 C 188.724 181.295,182.758 189.126,177.998 199.041 C 176.424 202.318,174.961 205.329,174.745 205.731 C 174.357 206.457,174.560 206.908,175.920 208.347 C 176.429 208.885,177.548 208.040,177.587 207.089 C 177.614 206.429,181.677 198.301,183.466 195.325 C 188.420 187.090,197.161 177.769,199.886 177.816 C 200.495 177.826,200.800 177.598,200.800 177.133 C 200.800 175.026,215.751 168.382,225.800 166.022 C 226.900 165.764,228.430 165.401,229.200 165.216 C 229.970 165.030,231.815 164.648,233.300 164.366 C 236.103 163.834,236.407 163.508,235.567 161.938 C 235.102 161.069,232.400 161.118,228.600 162.065 C 227.720 162.284,226.325 162.629,225.500 162.832 C 216.515 165.038,208.053 168.295,201.800 171.953 C 200.700 172.596,199.665 173.040,199.500 172.938 C 198.904 172.570,199.196 169.661,199.900 168.957 C 200.701 168.156,209.237 164.000,210.081 164.000 C 210.389 164.000,210.811 163.849,211.020 163.664 C 211.388 163.339,218.148 161.183,221.400 160.354 C 222.280 160.129,223.540 159.793,224.200 159.607 C 224.860 159.421,227.110 158.963,229.200 158.589 C 232.524 157.995,233.138 157.755,234.100 156.670 C 235.973 154.559,235.649 154.122,232.706 154.784 C 231.768 154.995,229.920 155.373,228.600 155.625 C 218.441 157.562,209.155 160.507,201.439 164.238 C 200.411 164.735,199.200 164.984,199.200 164.697 C 199.200 164.641,199.031 164.006,198.825 163.287 C 198.356 161.652,199.536 160.797,205.000 158.810 C 206.980 158.090,208.960 157.354,209.400 157.174 C 210.499 156.726,217.925 154.532,219.400 154.219 C 220.060 154.079,221.320 153.792,222.200 153.581 C 223.080 153.369,224.880 153.007,226.200 152.775 C 229.291 152.232,229.644 151.862,228.325 150.543 C 227.184 149.402,225.735 149.495,219.600 151.101 C 218.390 151.418,216.770 151.828,216.000 152.012 C 215.230 152.196,213.925 152.539,213.100 152.773 C 212.275 153.008,211.015 153.365,210.300 153.567 C 206.735 154.573,202.545 156.164,199.039 157.844 C 197.240 158.705,195.199 157.711,195.201 155.974 C 195.201 155.463,198.682 153.600,199.637 153.600 C 199.842 153.600,200.323 153.434,200.705 153.232 C 201.796 152.654,205.518 151.364,208.800 150.428 C 213.218 149.166,216.926 148.219,220.000 147.566 C 223.184 146.890,223.206 146.881,222.981 146.294 C 222.800 145.823,220.706 144.348,220.338 144.432 C 220.262 144.449,220.020 144.519,219.800 144.587 M236.800 147.872 C 234.315 148.127,233.642 148.389,232.612 149.501 C 231.252 150.967,231.286 151.723,232.700 151.457 C 233.305 151.343,234.832 151.136,236.093 150.997 C 238.004 150.786,238.519 150.556,239.193 149.610 C 240.612 147.618,240.446 147.497,236.800 147.872 M235.200 167.692 C 230.396 168.618,228.715 168.988,225.200 169.892 C 223.110 170.429,220.410 171.223,219.200 171.656 C 217.990 172.089,216.190 172.724,215.200 173.066 C 212.474 174.009,205.853 177.164,205.400 177.737 C 205.180 178.015,204.100 178.849,203.000 179.590 C 193.934 185.698,185.775 196.003,181.617 206.600 C 181.099 207.920,180.523 209.171,180.338 209.380 C 180.152 209.589,180.000 210.709,180.000 211.868 C 180.000 214.041,179.476 215.292,177.146 218.679 C 175.253 221.430,174.400 223.840,174.400 226.436 L 174.400 228.806 199.900 228.703 L 225.400 228.600 225.523 226.681 C 225.684 224.153,224.648 221.384,222.067 217.449 C 219.637 213.744,219.377 212.101,221.046 211.007 C 222.490 210.061,226.374 205.911,226.389 205.300 C 226.420 203.944,222.865 205.711,217.975 209.484 C 215.408 211.464,213.783 211.702,212.203 210.328 C 210.872 209.171,210.915 208.973,212.900 207.123 C 218.061 202.312,226.584 197.762,232.535 196.640 C 233.014 196.549,235.249 192.403,235.020 192.032 C 234.733 191.567,229.811 192.545,226.200 193.783 C 223.298 194.778,218.034 197.466,216.323 198.826 C 215.511 199.472,214.723 200.000,214.572 200.000 C 214.421 200.000,213.600 200.630,212.747 201.400 C 210.550 203.385,209.588 203.261,211.200 201.200 C 211.630 200.650,211.986 199.975,211.991 199.700 C 211.996 199.425,212.161 199.200,212.357 199.200 C 212.554 199.200,212.823 198.885,212.956 198.500 C 213.088 198.115,212.388 198.672,211.399 199.739 C 210.409 200.805,209.600 201.998,209.600 202.390 C 209.600 203.599,208.523 205.751,207.392 206.800 C 206.800 207.350,205.785 208.565,205.138 209.500 C 204.027 211.106,199.195 212.246,199.201 210.900 C 199.215 208.232,213.035 194.033,214.299 195.387 C 214.465 195.565,214.375 195.790,214.100 195.888 C 213.532 196.091,213.411 197.200,213.957 197.200 C 214.153 197.200,214.595 196.495,214.940 195.633 C 215.611 193.958,217.217 192.565,219.800 191.421 C 220.680 191.032,221.923 190.462,222.561 190.156 C 223.200 189.850,224.045 189.600,224.438 189.600 C 224.831 189.600,225.251 189.441,225.371 189.246 C 225.492 189.051,226.087 188.800,226.695 188.688 C 227.303 188.576,228.880 188.212,230.200 187.880 C 231.520 187.548,233.647 187.064,234.926 186.804 C 236.205 186.544,237.303 186.122,237.365 185.866 C 237.428 185.609,237.674 184.805,237.913 184.077 C 238.268 182.996,238.239 182.713,237.754 182.527 C 236.275 181.960,224.789 185.000,219.390 187.387 C 216.573 188.633,216.800 188.665,216.800 187.026 C 216.800 185.183,217.432 183.629,218.294 183.353 C 218.682 183.229,219.405 182.964,219.900 182.764 C 220.395 182.564,221.250 182.220,221.800 182.000 C 222.350 181.780,223.205 181.435,223.700 181.233 C 224.195 181.032,225.050 180.754,225.600 180.615 C 226.150 180.477,227.500 180.128,228.600 179.841 C 231.143 179.177,234.553 178.488,236.568 178.229 C 237.430 178.119,238.249 177.844,238.388 177.620 C 238.834 176.899,238.348 174.400,237.762 174.400 C 236.452 174.400,223.073 177.620,222.620 178.044 C 222.411 178.240,221.862 178.400,221.400 178.400 C 220.938 178.400,220.360 178.600,220.115 178.845 C 219.336 179.624,218.934 178.895,219.170 177.135 C 219.405 175.395,219.586 175.223,222.400 174.066 C 224.407 173.240,229.833 171.981,234.791 171.191 C 237.865 170.701,238.166 170.466,237.810 168.844 C 237.471 167.302,237.395 167.269,235.200 167.692 M218.387 177.324 C 218.369 179.126,217.822 179.669,214.200 181.477 C 205.165 185.988,198.437 191.862,193.069 199.926 C 190.399 203.936,187.214 209.788,187.205 210.700 C 187.202 211.033,186.531 211.200,185.200 211.200 C 183.171 211.200,182.894 210.942,183.584 209.695 C 183.795 209.313,184.547 207.740,185.255 206.200 C 185.964 204.660,187.051 202.648,187.672 201.728 C 188.292 200.808,188.800 199.945,188.800 199.810 C 188.800 199.237,192.890 193.596,195.053 191.184 C 200.202 185.446,205.455 181.497,212.400 178.145 C 218.370 175.264,218.408 175.259,218.387 177.324 M216.000 186.511 C 216.000 188.514,215.247 189.750,213.476 190.658 C 212.774 191.018,212.110 191.422,212.000 191.557 C 211.890 191.692,211.069 192.298,210.175 192.904 C 205.529 196.052,199.538 202.915,195.861 209.300 C 194.853 211.049,190.800 212.363,190.800 210.940 C 190.800 207.426,200.774 194.712,207.307 189.899 C 214.224 184.803,216.000 184.111,216.000 186.511 M211.108 210.725 C 211.197 210.990,210.899 211.200,210.433 211.200 C 209.602 211.200,209.353 210.780,209.875 210.258 C 210.246 209.888,210.913 210.140,211.108 210.725 M96.036 274.100 C 95.509 275.475,94.667 277.506,94.166 278.614 C 93.665 279.721,92.994 281.341,92.674 282.214 C 92.042 283.939,89.025 291.466,88.191 293.400 C 86.766 296.702,85.600 299.794,85.600 300.269 C 85.600 301.116,88.373 300.963,88.651 300.100 C 88.775 299.715,89.414 298.019,90.071 296.331 L 91.265 293.262 94.305 292.977 C 95.978 292.821,98.698 292.852,100.350 293.046 L 103.354 293.400 104.509 296.400 C 105.144 298.050,105.802 299.670,105.972 300.000 C 106.317 300.670,108.322 301.045,108.817 300.531 C 109.069 300.270,105.484 290.622,103.642 286.600 C 103.440 286.160,102.511 283.820,101.577 281.400 C 100.643 278.980,99.726 276.829,99.539 276.620 C 99.353 276.411,99.200 276.004,99.200 275.716 C 99.200 275.020,97.583 271.600,97.254 271.600 C 97.112 271.600,96.564 272.725,96.036 274.100 M167.732 272.083 C 167.515 272.367,165.395 277.460,163.021 283.400 C 158.393 294.978,158.119 295.649,156.888 298.400 C 155.932 300.538,156.029 300.800,157.779 300.800 C 159.058 300.800,161.612 296.319,161.602 294.090 C 161.599 293.305,163.159 292.891,165.800 292.977 C 167.120 293.020,169.508 293.088,171.106 293.128 L 174.013 293.200 174.662 294.700 C 175.019 295.525,175.487 296.650,175.702 297.200 C 175.917 297.750,176.252 298.513,176.447 298.895 C 176.641 299.277,176.800 299.862,176.800 300.195 C 176.800 300.634,177.238 300.800,178.400 300.800 C 179.280 300.800,180.000 300.645,180.000 300.455 C 180.000 300.027,177.759 294.454,177.205 293.505 C 176.982 293.123,176.800 292.634,176.800 292.418 C 176.800 292.202,176.065 290.265,175.166 288.113 C 174.267 285.961,173.386 283.840,173.207 283.400 C 173.028 282.960,172.608 281.970,172.275 281.200 C 171.941 280.430,170.996 278.090,170.175 276.000 C 168.479 271.686,168.279 271.365,167.732 272.083 M123.427 272.500 C 123.199 273.267,122.490 276.354,121.981 278.800 C 121.028 283.371,120.370 286.418,119.648 289.600 C 119.423 290.590,119.028 292.390,118.770 293.600 C 118.512 294.810,118.143 296.322,117.950 296.960 C 117.149 299.613,117.465 300.864,118.900 300.725 C 120.301 300.590,120.230 300.763,121.583 294.200 C 121.968 292.332,122.725 288.877,123.249 286.600 C 123.451 285.720,123.727 284.325,123.861 283.500 C 123.995 282.675,124.238 282.000,124.399 282.000 C 124.694 282.000,126.400 285.800,126.400 286.458 C 126.400 286.651,126.740 287.572,127.155 288.504 C 127.571 289.437,128.665 292.180,129.586 294.600 C 130.507 297.020,131.427 299.313,131.630 299.695 C 131.834 300.077,132.000 300.662,132.000 300.995 C 132.000 302.706,133.175 301.380,134.299 298.400 C 137.342 290.325,140.595 282.400,140.865 282.400 C 141.041 282.400,141.287 282.895,141.412 283.500 C 141.537 284.105,141.797 285.230,141.990 286.000 C 142.183 286.770,142.554 288.480,142.816 289.800 C 143.078 291.120,143.431 292.740,143.600 293.400 C 143.966 294.824,144.746 298.668,144.899 299.800 C 144.982 300.417,145.362 300.629,146.560 300.728 L 148.114 300.855 147.860 299.528 C 147.720 298.797,147.444 297.480,147.246 296.600 C 147.048 295.720,146.487 293.110,146.000 290.800 C 145.513 288.490,144.944 285.880,144.737 285.000 C 144.529 284.120,144.190 282.590,143.982 281.600 C 143.775 280.610,143.422 278.990,143.199 278.000 C 142.976 277.010,142.690 275.570,142.563 274.800 C 142.436 274.030,142.264 273.178,142.181 272.907 C 142.000 272.313,140.799 272.693,140.801 273.343 C 140.802 273.594,139.885 276.140,138.762 279.000 C 137.640 281.860,136.182 285.640,135.522 287.400 C 133.374 293.135,133.111 293.696,132.471 293.910 C 132.212 293.996,132.000 293.806,132.000 293.487 C 132.000 292.986,131.123 290.522,129.977 287.800 C 129.792 287.360,128.898 285.020,127.990 282.600 C 127.083 280.180,126.191 277.840,126.009 277.400 C 125.827 276.960,125.280 275.565,124.793 274.300 C 123.875 271.916,123.677 271.656,123.427 272.500 M190.495 286.300 L 190.600 300.600 192.100 300.724 L 193.600 300.848 193.600 291.024 C 193.600 285.621,193.735 281.202,193.900 281.205 C 194.065 281.208,194.957 282.333,195.883 283.705 C 196.809 285.077,198.699 287.825,200.083 289.812 C 201.467 291.798,203.860 295.256,205.400 297.497 C 206.940 299.738,208.335 301.578,208.500 301.586 C 208.665 301.594,208.800 295.109,208.800 287.175 L 208.800 272.749 207.500 272.875 C 206.428 272.978,206.192 273.175,206.157 274.000 C 206.133 274.550,206.088 278.840,206.057 283.533 C 205.989 293.649,206.205 293.479,201.703 286.968 C 195.789 278.413,194.273 276.218,193.437 275.000 C 192.234 273.246,191.108 272.000,190.725 272.000 C 190.541 272.000,190.437 278.435,190.495 286.300 M256.800 272.752 C 244.825 275.331,241.679 290.582,251.586 298.027 C 258.215 303.007,269.111 300.476,272.250 293.227 C 272.589 292.442,273.047 291.463,273.267 291.051 C 273.487 290.640,273.680 288.727,273.695 286.802 C 273.767 277.638,265.609 270.854,256.800 272.752 M220.000 273.968 C 220.000 275.333,221.109 275.740,224.294 275.544 L 226.200 275.427 226.306 288.137 L 226.411 300.848 227.906 300.724 L 229.400 300.600 229.506 288.100 L 229.611 275.600 231.556 275.600 C 235.070 275.600,236.000 275.255,236.000 273.950 L 236.000 272.800 228.000 272.800 L 220.000 272.800 220.000 273.968 M285.792 273.277 C 285.680 273.568,285.636 279.834,285.694 287.203 L 285.800 300.600 292.100 300.710 L 298.400 300.820 298.400 299.423 L 298.400 298.025 293.700 297.913 L 289.000 297.800 288.800 285.400 L 288.600 273.000 287.297 272.874 C 286.489 272.797,285.918 272.949,285.792 273.277 M309.600 286.800 L 309.600 300.851 310.900 300.725 L 312.200 300.600 312.200 286.800 L 312.200 273.000 310.900 272.875 L 309.600 272.749 309.600 286.800 M262.554 275.675 C 268.520 277.395,272.401 283.946,270.684 289.400 C 266.717 302.008,248.586 299.697,248.720 286.600 C 248.796 279.111,255.662 273.688,262.554 275.675 M99.194 282.700 C 100.118 285.065,101.027 287.360,101.212 287.800 C 102.359 290.519,102.531 290.400,97.427 290.400 C 92.457 290.400,92.059 290.184,93.169 288.095 C 93.372 287.713,94.119 285.870,94.830 284.000 C 95.541 282.130,96.275 280.429,96.461 280.220 C 96.648 280.011,96.800 279.516,96.800 279.120 C 96.800 277.447,97.617 278.669,99.194 282.700 M168.800 279.544 C 168.800 279.927,168.958 280.411,169.152 280.620 C 169.345 280.829,169.730 281.720,170.007 282.600 C 170.283 283.480,170.820 284.920,171.198 285.800 C 172.618 289.101,172.804 289.669,172.581 290.030 C 172.339 290.422,163.891 290.558,163.509 290.176 C 163.322 289.989,164.911 285.732,167.431 279.671 C 167.988 278.331,168.800 278.255,168.800 279.544 " stroke="none" fill="#F97316" fill-rule="evenodd"></path></g></svg>